<?xml version="1.0" standalone="no"?>
<!DOCTYPE svg PUBLIC "-//W3C//DTD SVG 20010904//EN"
 "http://www.w3.org/TR/2001/REC-SVG-20010904/DTD/svg10.dtd">
<svg version="1.0" xmlns="http://www.w3.org/2000/svg"
 width="288.000000pt" height="288.000000pt" viewBox="0 0 288.000000 288.000000"
 preserveAspectRatio="xMidYMid meet">

<g transform="translate(0.000000,288.000000) scale(0.100000,-0.100000)"
fill="#000000" stroke="none">
<path d="M1 2488 l0 -393 25 100 c14 58 36 116 51 138 14 20 27 37 29 37 2 0
-9 -26 -23 -57 -14 -32 -38 -121 -55 -198 l-29 -140 2 -370 c2 -203 6 -354 10
-335 5 26 7 29 8 11 1 -23 6 -20 52 32 28 31 55 57 60 57 23 0 3 -30 -61 -95
l-69 -70 -1 -112 c0 -72 4 -113 10 -113 7 0 7 -6 0 -19 -5 -11 -10 -43 -10
-72 l0 -53 33 32 c49 47 52 28 6 -33 -31 -42 -39 -60 -39 -96 l0 -43 50 49
c28 27 50 56 50 64 0 10 10 4 27 -16 73 -80 234 -203 330 -252 407 -204 897
-89 1288 303 203 203 318 401 389 671 40 151 49 231 44 401 -6 182 -11 202
-117 408 -33 66 -59 121 -57 123 8 9 115 -153 157 -236 72 -145 135 -443 101
-484 -6 -7 -16 -55 -22 -107 -11 -92 -34 -195 -66 -293 -9 -26 -13 -55 -10
-63 3 -8 2 -13 -3 -10 -5 3 -14 -9 -21 -27 -8 -17 -35 -76 -62 -130 -52 -107
-54 -112 -35 -101 7 4 9 3 4 -2 -5 -5 -12 -9 -17 -9 -5 0 -44 -47 -88 -105
-105 -139 -238 -267 -364 -352 -75 -50 -98 -70 -45 -40 45 26 47 26 47 8 0 -8
4 -17 9 -21 6 -3 9 4 8 15 -1 11 -6 20 -12 20 -12 1 25 30 37 30 4 0 8 -5 8
-10 0 -6 -5 -9 -11 -8 -6 2 -13 -5 -14 -14 -2 -10 1 -18 5 -18 5 0 7 -9 5 -19
-2 -14 1 -18 10 -15 8 3 11 12 8 20 -3 8 0 14 7 14 6 0 8 -5 4 -11 -4 -7 -1
-10 7 -7 22 7 23 38 2 39 -11 0 -13 3 -5 6 7 3 19 -1 27 -7 8 -7 15 -8 15 -3
0 5 7 10 17 10 20 0 -13 -28 -108 -92 -90 -60 -164 -96 -294 -141 l-110 -38
-180 -1 c-162 0 -187 2 -250 23 -77 26 -203 86 -259 125 -87 58 -206 170 -299
281 -98 116 -100 118 -111 93 -6 -14 -30 -46 -53 -72 -39 -43 -43 -52 -43 -99
l1 -51 74 80 c40 44 76 77 80 73 7 -7 -47 -81 -115 -159 l-41 -46 3 -88 3 -88
90 103 c118 136 132 150 145 150 16 0 -14 -39 -134 -175 l-106 -119 0 -138 0
-138 1440 0 1440 0 0 197 0 196 -62 66 c-120 129 -131 141 -126 146 4 4 49
-35 146 -128 l42 -41 0 75 0 76 -65 75 c-59 69 -76 98 -59 98 4 0 33 -28 65
-62 l59 -63 0 52 c0 48 -4 57 -46 105 -53 59 -43 80 12 27 l34 -33 0 47 c0 38
-6 53 -31 82 -36 40 -33 56 5 31 l26 -16 0 707 0 707 -42 -39 -42 -40 36 43
c20 24 38 54 41 68 2 14 2 22 -1 20 -5 -6 -42 58 -42 71 1 5 12 -5 25 -22 l25
-30 0 90 0 90 -26 -29 c-15 -15 -27 -41 -28 -56 -1 -21 -4 -26 -13 -18 -9 7
-27 -5 -65 -41 -29 -27 -54 -48 -57 -46 -5 5 102 120 157 168 l32 29 0 139 0
139 -1345 0 c-1276 0 -1344 -1 -1338 -17 6 -17 5 -17 -14 0 -15 13 -38 17
-101 17 l-82 0 1 -392z m1739 347 c160 -25 348 -101 500 -200 36 -24 109 -85
163 -135 86 -81 99 -90 114 -79 15 13 15 12 5 -7 -10 -19 -7 -28 22 -65 82
-109 173 -268 216 -381 21 -55 26 -83 11 -59 -11 17 -34 4 -27 -15 3 -8 2 -14
-3 -14 -4 0 -13 19 -20 41 -21 71 -128 270 -198 369 -79 112 -199 232 -274
276 -30 17 -92 53 -139 81 -213 124 -408 173 -689 173 -141 0 -154 14 -26 28
92 11 223 6 345 -13z m901 -52 c44 -47 63 -91 35 -80 -10 4 -49 -33 -118 -113
-98 -113 -118 -132 -118 -111 0 10 85 112 164 198 l49 53 -24 28 c-58 64 -63
72 -47 72 8 0 34 -21 59 -47z m-927 -45 c156 -51 286 -138 427 -286 244 -256
374 -639 339 -999 -42 -427 -250 -808 -575 -1053 -71 -54 -247 -144 -330 -170
-75 -22 -273 -55 -282 -46 -3 3 3 8 13 12 353 116 613 326 813 657 91 151 153
316 197 527 34 159 39 399 11 520 -74 316 -205 548 -378 670 -88 62 -239 145
-298 165 -28 9 -51 21 -51 26 0 11 30 5 114 -23z m-1381 -10 c8 -28 5 -31 -18
-14 -10 7 -15 18 -11 24 11 18 23 14 29 -10z m1102 3 c71 -18 149 -50 142 -58
-3 -2 -35 3 -71 12 -223 51 -529 -26 -749 -188 -75 -55 -189 -178 -243 -263
-167 -260 -233 -576 -178 -849 12 -60 56 -199 81 -254 28 -61 123 -212 156
-248 26 -29 20 -35 -25 -23 -46 13 -114 74 -163 144 -39 57 -55 73 -35 36 9
-16 6 -25 -13 -46 l-24 -25 -30 68 c-83 186 -108 328 -100 573 7 214 39 341
141 551 90 185 242 352 402 442 64 35 214 97 237 97 8 0 34 7 58 16 102 37
302 45 414 15z m-1045 -78 c0 -9 5 -11 13 -7 6 4 9 4 5 0 -6 -8 39 -51 105
-99 36 -27 48 -47 27 -47 -14 0 -182 162 -175 168 3 3 -1 12 -7 21 -8 10 -4 9
10 -3 12 -11 22 -25 22 -33z m2373 -45 c13 -36 -11 -16 -42 35 l-33 52 34 -35
c19 -19 37 -43 41 -52z m-2671 -7 c10 -9 18 -19 18 -24 0 -11 -48 25 -54 41
-6 14 6 8 36 -17z m2113 -29 c-3 -3 -11 0 -18 7 -9 10 -8 11 6 5 10 -3 15 -9
12 -12z m-2027 -52 c4 -11 52 -65 106 -120 54 -56 95 -104 91 -108 -3 -4 -23
11 -43 33 -102 114 -152 165 -161 165 -6 0 -17 -12 -26 -27 -15 -27 -15 -27
-8 -3 4 14 7 37 7 53 -1 32 23 37 34 7z m2034 -40 c29 -28 53 -58 54 -68 2 -9
-24 12 -57 48 -32 35 -59 66 -59 67 0 10 17 -3 62 -47z m-656 -21 c51 -16 124
-43 163 -59 40 -16 88 -32 107 -36 18 -3 34 -10 34 -15 0 -12 -66 -22 -108
-16 l-37 6 30 -25 c125 -106 173 -156 226 -237 32 -49 59 -91 59 -93 0 -22
-109 30 -184 86 -49 37 -185 105 -193 97 -2 -3 10 -10 26 -17 52 -21 149 -132
185 -212 47 -102 59 -183 42 -279 -8 -42 -22 -91 -32 -110 l-18 -34 -7 78 c-8
91 -56 201 -115 263 -43 46 -54 39 -21 -13 82 -125 89 -352 16 -495 -27 -54
-99 -130 -158 -168 -54 -34 -72 -39 -48 -12 21 23 62 132 76 202 35 177 12
300 -79 436 -90 132 -164 172 -385 209 l-90 14 105 -5 c58 -3 133 -12 168 -20
78 -17 196 -67 240 -100 18 -15 36 -24 38 -21 10 10 -99 88 -165 119 -77 36
-221 68 -306 68 -103 0 -245 -19 -289 -39 -56 -25 -76 -50 -84 -106 l-7 -47
-21 29 c-67 91 -56 231 23 305 33 32 138 71 165 62 11 -3 29 -29 42 -58 27
-60 64 -91 127 -105 71 -17 78 -13 23 13 -47 22 -94 69 -94 95 0 21 37 11 75
-19 66 -53 151 -60 207 -17 20 16 38 59 38 92 0 18 7 26 25 31 28 7 91 1 120
-11 17 -8 18 -7 7 7 -22 27 -99 58 -161 64 -69 8 -117 -6 -185 -53 -65 -45
-131 -47 -177 -5 -31 28 -31 29 -15 59 19 38 61 65 146 93 143 48 314 48 466
-1z m762 -95 c19 -3 110 -124 93 -124 -4 0 -14 11 -21 24 -7 14 -19 27 -27 30
-10 4 -10 0 2 -24 26 -50 10 -34 -39 41 -26 39 -42 67 -34 63 7 -5 19 -9 26
-10z m352 9 c-1 -5 -17 -26 -37 -48 -38 -42 -36 -32 5 23 25 32 32 38 32 25z
m-1432 -90 c-3 -30 -25 -42 -34 -19 -9 22 2 46 21 46 12 0 15 -8 13 -27z m18
-58 c-23 -35 -96 -33 -96 3 0 12 3 13 12 4 18 -18 56 -15 76 6 23 25 28 18 8
-13z m1494 -20 c-24 -25 -49 -45 -54 -45 -10 0 83 89 94 90 2 0 -16 -20 -40
-45z m-2450 10 c14 -19 14 -19 -2 -6 -10 7 -18 18 -18 24 0 6 1 8 3 6 1 -2 9
-13 17 -24z m2150 -66 c83 -148 139 -304 121 -337 -5 -10 -8 -56 -7 -103 4
-91 4 -92 -30 91 -21 112 -68 258 -110 343 -29 58 -31 66 -13 54 11 -8 29 -30
39 -48z m-1437 -136 c-13 -2 -35 -2 -50 0 -16 2 -5 4 22 4 28 0 40 -2 28 -4z
m184 -85 c26 -12 53 -24 58 -27 6 -2 3 4 -5 14 -14 17 -13 17 10 10 41 -12
130 -77 179 -131 60 -66 91 -145 98 -249 11 -169 -44 -297 -199 -461 -59 -62
-108 -125 -121 -152 l-20 -47 -10 35 c-23 88 8 223 96 415 60 129 80 221 66
304 -19 121 -83 222 -178 283 -54 34 -41 36 26 6z m888 -186 c-20 -100 -67
-242 -108 -334 -140 -306 -473 -614 -786 -728 -270 -99 -515 -93 -738 18 -141
70 -228 130 -308 212 -78 81 -73 81 29 2 188 -145 365 -211 568 -212 354 -1
724 175 985 470 188 212 323 478 359 710 l9 55 3 -58 c2 -33 -4 -93 -13 -135z
m-1406 48 l33 -5 -25 -23 c-22 -21 -24 -28 -15 -53 14 -40 5 -46 -28 -20 l-27
21 -25 -22 -25 -23 7 42 c6 39 4 44 -21 60 l-27 18 34 5 c28 4 38 12 50 38
l14 34 12 -34 c8 -26 17 -34 43 -38z m310 0 l33 -5 -25 -23 c-22 -21 -24 -28
-15 -53 14 -40 3 -47 -27 -19 l-25 23 -26 -24 -27 -24 7 42 c5 37 3 43 -22 62
l-27 20 32 1 c28 0 35 5 49 38 l16 37 12 -35 c10 -28 19 -36 45 -40z m241 -30
c69 -101 76 -224 22 -361 -15 -41 -69 -135 -119 -211 -94 -141 -128 -219 -140
-318 l-6 -53 -31 59 c-27 53 -30 68 -30 149 0 131 31 198 170 380 58 76 94
146 94 182 0 22 -5 16 -24 -30 -28 -66 -24 -61 -138 -192 -179 -206 -241 -303
-254 -397 -4 -27 -10 -48 -14 -48 -14 0 -30 79 -30 146 1 132 60 234 195 334
120 90 175 151 220 245 37 79 43 132 21 190 -10 26 21 -10 64 -75z m1360 30
c0 -5 -2 -10 -4 -10 -3 0 -8 5 -11 10 -3 6 -1 10 4 10 6 0 11 -4 11 -10z
m-1921 -270 c7 -23 16 -30 35 -30 31 0 33 -11 7 -34 -16 -14 -18 -23 -10 -43
18 -49 11 -59 -21 -28 l-30 29 -25 -24 c-30 -28 -39 -23 -25 16 10 26 8 31
-14 51 -33 28 -33 33 5 33 25 0 33 6 42 30 6 17 14 30 18 30 4 0 12 -13 18
-30z m1888 -117 c-3 -10 -5 -4 -5 12 0 17 2 24 5 18 2 -7 2 -21 0 -30z m-2395
-245 c-7 -7 -12 -8 -12 -2 0 14 12 26 19 19 2 -3 -1 -11 -7 -17z m40 -125
c-15 -27 -49 -56 -62 -51 -7 2 -4 10 7 20 10 9 27 26 38 36 24 22 30 21 17 -5z
m1698 -357 c0 -2 -7 -9 -15 -16 -13 -11 -14 -10 -9 4 5 14 24 23 24 12z m-56
-57 c-10 -12 -37 -35 -59 -53 l-40 -31 22 28 c12 15 23 27 25 26 2 -2 16 9 32
24 34 32 47 36 20 6z"/>
<path d="M881 2201 c-17 -11 -7 -27 30 -46 26 -14 29 -14 29 0 0 24 -19 55
-33 55 -7 0 -18 -4 -26 -9z"/>
<path d="M1198 353 c7 -3 16 -2 19 1 4 3 -2 6 -13 5 -11 0 -14 -3 -6 -6z"/>
</g>
</svg>
